<svg xmlns="http://www.w3.org/2000/svg" viewBox="0 0 81.6 84.49"><defs><style>.cls-1{fill:#ad1046;}</style></defs><title>about-1</title><g id="Слой_2" data-name="Слой 2"><g id="modem"><path class="cls-1" d="M74.25,0c-.16,0-.22.24,0,.46a27.41,27.41,0,0,1,5.5,18.4,25.81,25.81,0,0,1-8.41,17.32c-.28.26-.17.61.16.51A23,23,0,0,0,81.54,19,23.82,23.82,0,0,0,74.45.1a.37.37,0,0,0-.2-.1ZM36.18.2a.34.34,0,0,0-.2.11,23.78,23.78,0,0,0-7.09,18.9,23,23,0,0,0,10,17.69c.33.1.49-.26.21-.51a25.87,25.87,0,0,1-8.41-17.33A27.43,27.43,0,0,1,36.18.66c.17-.22.16-.46,0-.46ZM69,3.62c-.19,0-.28.26,0,.56,2.59,3.46,3.86,8.83,3.52,13.66a24.54,24.54,0,0,1-5,12.63c-.26.34-.2.61.21.36A17.94,17.94,0,0,0,74.3,18,18.41,18.41,0,0,0,69.2,3.72a.31.31,0,0,0-.2-.1Zm-27.57.2a.5.5,0,0,0-.25.1,18.41,18.41,0,0,0-5.1,14.27A18,18,0,0,0,42.7,31c.41.26.42,0,.16-.35a24.61,24.61,0,0,1-5-12.64c-.34-4.83.93-10.19,3.52-13.66.23-.3.19-.56,0-.56ZM64.72,9.07c-.19,0-.28.24-.15.46a16.14,16.14,0,0,1,1.78,8.82,16.22,16.22,0,0,1-1.94,7.18c-.23.45,0,.83.41.51A12.38,12.38,0,0,0,68,18.5a12.68,12.68,0,0,0-3.11-9.33.31.31,0,0,0-.2-.1Zm-19,.2a.53.53,0,0,0-.25.11A12.61,12.61,0,0,0,42.4,18.7a12.37,12.37,0,0,0,3.16,7.55c.44.31.64-.07.41-.51a16.27,16.27,0,0,1-1.89-7.19,16.29,16.29,0,0,1,1.73-8.87c.14-.22.09-.43-.1-.4Zm7.85,5.92a1.65,1.65,0,0,0-1.63,1.68v34.8h7.13V16.87a1.64,1.64,0,0,0-1.63-1.68ZM7.29,53.46A8.15,8.15,0,0,0,0,61.61V76.34a8.13,8.13,0,0,0,8.15,8.15H67.37a8.13,8.13,0,0,0,8.15-8.15V61.61a8.13,8.13,0,0,0-8.15-8.15H8.15A8.22,8.22,0,0,0,7.29,53.46ZM57,56.52H67.22a5.56,5.56,0,0,1,5.55,5.55v4.64C71.24,60,66,57.47,57,56.52Zm-42.15,5a6.93,6.93,0,1,1,0,13.86,6.93,6.93,0,0,1,0-13.86ZM15,64.16a4.31,4.31,0,1,0,0,8.61C13.22,70.84,12.73,66.22,15,64.16Zm14.83,4.33a3.41,3.41,0,0,1,3.42,3.42,3.45,3.45,0,0,1-3.42,3.46,3.49,3.49,0,0,1-3.46-3.46A3.45,3.45,0,0,1,29.86,68.49Zm10.14,0a3.45,3.45,0,0,1,3.47,3.42A3.49,3.49,0,0,1,40,75.37a3.44,3.44,0,0,1-3.41-3.46A3.4,3.4,0,0,1,40,68.49Zm10.2,0a3.4,3.4,0,0,1,3.41,3.42,3.44,3.44,0,0,1-3.41,3.46,3.49,3.49,0,0,1-3.47-3.46A3.45,3.45,0,0,1,50.2,68.49Zm10.14,0a3.45,3.45,0,0,1,3.46,3.42,3.49,3.49,0,0,1-3.46,3.46,3.45,3.45,0,0,1-3.42-3.46A3.41,3.41,0,0,1,60.34,68.49Z"/></g></g></svg>