<svg xmlns="http://www.w3.org/2000/svg" viewBox="0 0 39.74 39.27"><defs><style>.cls-1{fill:#ad1046;}</style></defs><title>about-2</title><g id="Слой_2" data-name="Слой 2"><g id="Isolation_Mode" data-name="Isolation Mode"><path class="cls-1" d="M37.4,37.76C31.19,44,25.22,26.48,17.19,21.63l-1.9.68-1.88-1.88,7.71-7.71L23,14.6l-.68,1.9c4.85,8,22.31,14,16.1,20.24l-1,1ZM15.29,16.59l2-2L9.62,7l-2-4.25C7.19,2,4.86.71,4.06.15L.81,3.39c.57.8,1.8,3.13,2.57,3.51L7.63,9l7.66,7.63Zm-2.73,4.69-1.79,1.8-5.14.6L.94,28.38,0,33.23.75,34l4.63-4.64a.73.73,0,0,1,1,0l3.54,3.54a.73.73,0,0,1,0,1L5.29,38.53l.75.74,4.86-.93,4.69-4.69.55-5.08,3.44-3.44A16.35,16.35,0,0,0,17,23L15,23.7l-2.42-2.42Zm16-5.14,5.08-.55,4.69-4.69L39.27,6l-.74-.75L33.89,9.93a.73.73,0,0,1-1,0L29.35,6.39a.71.71,0,0,1,0-1L34,.75,33.23,0,28.37.94,23.68,5.63l-.6,5.14L22,11.87l2.42,2.42-.74,2.06a16.35,16.35,0,0,0,2.17,2.54Z"/></g></g></svg>