<svg xmlns="http://www.w3.org/2000/svg" viewBox="0 0 97.6 66.84"><defs><style>.cls-1{fill:#454545;fill-rule:evenodd;}</style></defs><title>about-4</title><g id="Слой_2" data-name="Слой 2"><g id="Isolation_Mode" data-name="Isolation Mode"><path class="cls-1" d="M48.35,8.64a28.18,28.18,0,0,1,14.3,3.51,28.63,28.63,0,0,1,6.17,4.9c1,1,2,2.11,2.93,3.19a37.88,37.88,0,0,1,2.54,3A3.39,3.39,0,0,1,75,25.8a5.88,5.88,0,0,1-1.64,2.81l-1.8,2c-3.64,4-7.91,7.94-13,10a24.72,24.72,0,0,1-18.5.37C34.63,39,29.88,34.94,26,30.64c-.61-.67-1.21-1.35-1.81-2-1.57-1.79-2.45-3.4-.78-5.54.72-.93,1.55-1.78,2.32-2.68,6.39-7.46,12.5-11.6,22.6-11.75Zm-12,8c-3.32,2.16-5.65,5.09-8.43,8.19-.31.35-.41.64-.09,1s.46.54.7.8a42,42,0,0,0,9.22,8.19,26,26,0,0,0,3,1.55,14.48,14.48,0,0,1-4.41-19.76ZM55.81,36.86c5.72-2.1,9.23-5.7,13.25-10.21.23-.26.47-.52.7-.8a.64.64,0,0,0,0-.93c-2.94-3.27-5.36-6.36-8.93-8.56a14.49,14.49,0,0,1-5,20.5ZM48.68,14.43a9.83,9.83,0,1,0,9.83,9.83,9.83,9.83,0,0,0-9.83-9.83Zm1,2.38a7,7,0,0,0-4.53.93A3.26,3.26,0,0,1,43.8,24a3.31,3.31,0,0,1-2.33-1,7.43,7.43,0,1,0,8.19-6.2Z"/><path class="cls-1" d="M88.36,52.9H9.25L0,61.08v5.76H97.6V61.08c-3.08-2.73-6.17-5.45-9.24-8.18Zm-6-46.62h-67V44.83h67V6.28Zm6,44.83H9.25V0H88.36V51.11ZM58.2,58.69l2.43,2.15H37.55L40,58.69ZM87,54.31l3.43,3H7.15l3.43-3Z"/></g></g></svg>