<svg xmlns="http://www.w3.org/2000/svg" viewBox="0 0 121.4 61.31"><defs><style>.cls-1{fill:#ad1e48;fill-rule:evenodd;}</style></defs><title>cars</title><g id="Слой_2" data-name="Слой 2"><g id="Isolation_Mode" data-name="Isolation Mode"><path class="cls-1" d="M121.32,48c.12-1.55.18-4.44-.38-4.84l-.35-.32a1.47,1.47,0,0,1-.42-1.08c-.2-2-.34-4.29-.56-5.41-.39-2-.74-2.34-1.77-3.2-2.27-1.41-9.71-3.14-9.87-3.28L98.21,21c-1.35-1.28-2.21-2.34-5.65-2.41l-11.13-.11V42.74a11.44,11.44,0,0,1,1.11,1A11.86,11.86,0,0,1,85.34,49a10.08,10.08,0,0,1,.35,2.87H96.35a8.4,8.4,0,0,1,16.8,0l2.67-.09a10,10,0,0,0,4.65-1.61c.71-.53.76-1,.85-2.14Zm-16.65-4a7.15,7.15,0,1,0,7.15,7.15A7.15,7.15,0,0,0,104.67,44Zm0,3.17a4,4,0,1,1-4,4,4,4,0,0,1,4-4ZM98,22.65l6.33,6.24c1.15,1.07.67,2.05-.84,2.05H86.67A1.28,1.28,0,0,1,85.4,29.8L85,21.5a.52.52,0,0,1,.51-.57l9.56.11c1.39,0,2,.68,2.91,1.61ZM10.82,0V33l.76-.23c2.83-.82,5.69-1.6,8.56-2.31A61.88,61.88,0,0,1,33.2,28.54c6.58-.2,11.52.21,17.62,2.94,2.07.93,4.08,1.95,6.1,3,1.41.7,2.8,1.41,4.2,2.13a11.17,11.17,0,0,0,2.87.77,88.67,88.67,0,0,1,9.69,2A27.63,27.63,0,0,1,80,41.79V0ZM53.16,37.1a39.38,39.38,0,0,0-7.9-3.46c-6.41-1.78-15-1.24-20.93.29-1.33.35-2.84.78-3.88,1.09s-1.62.5-2,.65-1.15.52-.55,1c1.83,1.49,5.43,1.63,7.62,1.89,1.8.21,4,.46,7.83.74s10.27.62,13.39.82,6.53.5,9.79.58c.27,0,1.6.08,1.13-.56s-3.6-2.48-4.52-3ZM66.65,49.67A4.34,4.34,0,1,1,62.31,54a4.33,4.33,0,0,1,4.34-4.34Zm0-3A7.31,7.31,0,1,1,59.34,54a7.3,7.3,0,0,1,7.31-7.31Zm-49.52,3A4.34,4.34,0,1,1,12.79,54a4.33,4.33,0,0,1,4.34-4.34Zm0-3A7.31,7.31,0,1,1,9.82,54a7.3,7.3,0,0,1,7.31-7.31Zm46.42-6.85a82.58,82.58,0,0,1,9.43,2c2.75.79,5.67,1.62,7.76,3.71a9.37,9.37,0,0,1,2.14,4.14,7.28,7.28,0,0,1-.4,4.95l-.8,1.8C81,57.88,79.86,58,78.09,58c-1.14,0-2.3,0-3.44-.06l-.5,0c.64-1.2,1-.94,1-4s-3.82-8.53-8.52-8.53-8.53,5.44-8.53,8.53.37,2.83,1,4H24.68c.65-1.2,1-1,1-4s-3.82-8.53-8.53-8.53-8.52,5.57-8.52,8.53.25,2.35.7,3.39l-3.86-.46a10.32,10.32,0,0,1-3.29-.72C1.36,55.67,1,54.4.79,53.58A26.45,26.45,0,0,1,.18,50c-.14-1.39-.4-4,.18-5.26.79-1.75,1.06,0,1.68-3.25s1-3.09,6.32-4.94c1.3-.44,2.61-.86,3.93-1.25,2.81-.81,5.63-1.58,8.46-2.29a59.65,59.65,0,0,1,12.53-1.87c6.22-.19,10.73.14,16.5,2.72,2,.91,4,1.92,6,2.92q2.09,1,4.15,2.11a13.44,13.44,0,0,0,3.61,1Z"/></g></g></svg>