<svg xmlns="http://www.w3.org/2000/svg" viewBox="0 0 101.44 64.34"><defs><style>.cls-1{fill-rule:evenodd;}</style></defs><title>check</title><g id="Слой_2" data-name="Слой 2"><g id="Isolation_Mode" data-name="Isolation Mode"><path class="cls-1" d="M7.88,24.49,20.16,26A3.11,3.11,0,0,1,23,29v2.29a.78.78,0,0,1-.81.79L9.92,31.6a3.43,3.43,0,0,1-3.27-3.39V25.67a1.15,1.15,0,0,1,1.23-1.18Zm5.85-6.22c-.78.11-.88-.44-.59-.85L22.51,5.75A2.14,2.14,0,0,1,24,4.89c16.63-1.13,23.74-1,40.3,0a2.18,2.18,0,0,1,1.53.86l1.27,1.58A30.94,30.94,0,0,1,72,6.6L68.63,2.48a4.38,4.38,0,0,0-3-1.67,285.08,285.08,0,0,0-42.95,0,4.43,4.43,0,0,0-3,1.67L12.07,11.9H3.17A2.59,2.59,0,0,0,.83,13.75l-.81,3c-.1.4.17.57.54.73l5.07,2.31L3.57,22.34a9.78,9.78,0,0,0-1.83,6.38V54.07A1.9,1.9,0,0,0,3.63,56H17.42a1.89,1.89,0,0,0,1.88-1.89V51.55h28a30.53,30.53,0,0,1,3.5-34.17c-11.71-.2-22.58.07-37.07.89ZM74.14,9.73a27.16,27.16,0,0,1,18.07,6.84l-4.45,4a21.39,21.39,0,1,0,7.77,17l5.54-5a26.62,26.62,0,0,1,.37,4.5A27.31,27.31,0,1,1,74.14,9.73ZM100.7,27.57,74.16,51.28,61.78,40.21V26.92L74.16,38,100.7,14.28V27.57Z"/></g></g></svg>