<svg xmlns="http://www.w3.org/2000/svg" viewBox="0 0 97.6 73.42"><defs><style>.cls-1{fill-rule:evenodd;}</style></defs><title>comp-lock</title><g id="Слой_2" data-name="Слой 2"><g id="Isolation_Mode" data-name="Isolation Mode"><path class="cls-1" d="M88.36,59.48H9.25L0,67.66v5.76H97.6V67.66c-3.08-2.73-6.17-5.45-9.24-8.18Zm-6-46.62H44.5V6.58H88.36V57.69H9.25V44.05h6v7.36h67V12.86ZM58.2,65.27l2.43,2.15H37.55L40,65.27ZM87,60.89l3.43,3H7.15l3.43-3ZM73.37,42.17l-6.74-6.74,3.92-3.92-19-7.24,7.24,19,3.92-3.92,6.74,6.74,4-4ZM8.65,17.88A1.43,1.43,0,0,0,7.23,19.3V39.07a1.43,1.43,0,0,0,1.42,1.42H42.46a1.43,1.43,0,0,0,1.42-1.42V19.3a1.43,1.43,0,0,0-1.42-1.42ZM16.85,0a6.69,6.69,0,0,0-6.68,6.68v9.06h7V7.18A.22.22,0,0,1,17.35,7H33.76a.23.23,0,0,1,.22.21v8.56h7V6.68A6.69,6.69,0,0,0,34.26,0Zm8.71,23.28a3.71,3.71,0,0,0-2.09,6.78l-.72,5h5.61l-.71-5a3.71,3.71,0,0,0-2.09-6.78Z"/></g></g></svg>