<svg xmlns="http://www.w3.org/2000/svg" viewBox="0 0 104.75 58.86"><defs><style>.cls-1{fill:#494949;fill-rule:evenodd;}</style></defs><title>control</title><g id="Слой_2" data-name="Слой 2"><g id="Layer_1" data-name="Layer 1"><path class="cls-1" d="M77,38.92,68,40A2.24,2.24,0,0,0,66,42.11v1.62a.57.57,0,0,0,.6.56L75.5,44a2.46,2.46,0,0,0,2.38-2.4v-1.8a.83.83,0,0,0-.89-.84Zm-49.23,0,9,1.08a2.25,2.25,0,0,1,2.08,2.11v1.62a.58.58,0,0,1-.6.56L29.25,44a2.46,2.46,0,0,1-2.38-2.4v-1.8a.83.83,0,0,1,.89-.84Zm8.32,16.95v1.65a1.37,1.37,0,0,1-1.37,1.34h-10a1.36,1.36,0,0,1-1.37-1.34V41.41a6.65,6.65,0,0,1,1.33-4.51l1.5-1.79-3.69-1.64c-.27-.12-.48-.24-.4-.52l.59-2.15a1.89,1.89,0,0,1,1.7-1.3h6.48l5.58-6.68a3.24,3.24,0,0,1,2.17-1.18,174.57,174.57,0,0,1,27.63,0,3.24,3.24,0,0,1,2.17,1.18l5.58,6.68h6.48a1.89,1.89,0,0,1,1.7,1.3L82.71,33c.08.28-.13.4-.4.52l-3.68,1.64,1.49,1.79a6.65,6.65,0,0,1,1.33,4.51V57.52a1.35,1.35,0,0,1-1.37,1.34h-10a1.37,1.37,0,0,1-1.38-1.34V55.87ZM58.59,17.8a11.27,11.27,0,0,0-12.38,0l-2-3a15,15,0,0,1,16.44,0l-2,3.05ZM35.7,5.68a27.43,27.43,0,0,1,33.35-.06L66.81,8.51A23.75,23.75,0,0,0,38,8.56L35.7,5.68Zm27,7.46,2.17-3a21.21,21.21,0,0,0-25,0l2.18,2.94a17.51,17.51,0,0,1,20.6,0ZM17.8,31.35a11.27,11.27,0,0,0,0,12.38l-3,2a15,15,0,0,1,0-16.43l3.05,2ZM5.68,54.23,8.56,52a23.74,23.74,0,0,1-.05-28.85L5.62,20.89a27.41,27.41,0,0,0,.06,33.34Zm7.46-27-3-2.16A21.21,21.21,0,0,0,10.23,50l2.94-2.18a17.51,17.51,0,0,1,0-20.6ZM87,31.35a11.27,11.27,0,0,1,0,12.38l3.06,2a15,15,0,0,0,0-16.43l-3,2ZM99.07,54.23a27.41,27.41,0,0,0,.06-33.34l-2.89,2.24a23.74,23.74,0,0,1,0,28.85l2.88,2.25Zm-7.46-27,3-2.16a21.21,21.21,0,0,1,0,24.94l-2.94-2.18A17.5,17.5,0,0,0,91.61,27.24Z"/></g></g></svg>