<svg xmlns="http://www.w3.org/2000/svg" viewBox="0 0 15.46 15.71"><defs><style>.cls-1{fill:#1a1a1a;}</style></defs><title>graf</title><g id="Слой_2" data-name="Слой 2"><g id="Layer_2" data-name="Layer 2"><path class="cls-1" d="M2.25,13.49a1.12,1.12,0,1,1,1.11-1.12A1.12,1.12,0,0,1,2.25,13.49Zm0-1.73a.61.61,0,0,0-.62.61.62.62,0,0,0,.62.62.61.61,0,0,0,.61-.62A.61.61,0,0,0,2.25,11.76Z"/><path class="cls-1" d="M6.11,9.77A1.12,1.12,0,1,1,7.23,8.66,1.12,1.12,0,0,1,6.11,9.77ZM6.11,8a.62.62,0,0,0-.62.62.62.62,0,0,0,1.24,0A.62.62,0,0,0,6.11,8Z"/><path class="cls-1" d="M10,11.1A1.12,1.12,0,1,1,11.09,10,1.12,1.12,0,0,1,10,11.1Zm0-1.73a.62.62,0,1,0,.62.62A.62.62,0,0,0,10,9.37Z"/><path class="cls-1" d="M13.83,4.68A1.12,1.12,0,1,1,15,3.56,1.12,1.12,0,0,1,13.83,4.68Zm0-1.73a.61.61,0,0,0-.61.61.61.61,0,0,0,.61.62.62.62,0,0,0,.62-.62A.61.61,0,0,0,13.83,3Z"/><path class="cls-1" d="M2.87,12A.24.24,0,0,1,2.69,12a.25.25,0,0,1,0-.36L5.31,9.07a.26.26,0,0,1,.36,0,.25.25,0,0,1,0,.35L3,12A.22.22,0,0,1,2.87,12Z"/><path class="cls-1" d="M10.41,9.5a.19.19,0,0,1-.12,0,.25.25,0,0,1-.09-.34l3-4.94a.25.25,0,0,1,.43.25l-3,5A.27.27,0,0,1,10.41,9.5Z"/><path class="cls-1" d="M9.15,10l-.08,0L6.85,9.17a.24.24,0,0,1-.16-.31A.26.26,0,0,1,7,8.7l2.22.77a.25.25,0,0,1-.08.49Z"/><path class="cls-1" d="M15.21,15.71H.25A.25.25,0,0,1,0,15.46V.25A.25.25,0,0,1,.25,0,.25.25,0,0,1,.5.25v15H15.21a.25.25,0,0,1,.25.25A.25.25,0,0,1,15.21,15.71Z"/><path class="cls-1" d="M2.25,15.71A.25.25,0,0,1,2,15.46V13.24a.25.25,0,0,1,.5,0v2.22A.25.25,0,0,1,2.25,15.71Z"/><path class="cls-1" d="M6.11,15.71a.25.25,0,0,1-.25-.25V9.52a.25.25,0,0,1,.5,0v5.94A.25.25,0,0,1,6.11,15.71Z"/><path class="cls-1" d="M10,15.71a.25.25,0,0,1-.25-.25V10.85a.25.25,0,0,1,.5,0v4.61A.25.25,0,0,1,10,15.71Z"/><path class="cls-1" d="M13.83,15.71a.25.25,0,0,1-.25-.25v-11a.25.25,0,1,1,.5,0v11A.25.25,0,0,1,13.83,15.71Z"/></g></g></svg>