<svg xmlns="http://www.w3.org/2000/svg" viewBox="0 0 46.22 33.62"><defs><style>.cls-1{fill:#fff;fill-rule:evenodd;}</style></defs><title>mashine</title><g id="Слой_2" data-name="Слой 2"><g id="Isolation_Mode" data-name="Isolation Mode"><path class="cls-1" d="M36.48,15.8a7.81,7.81,0,0,1,1.8.25l2.09-2.5a6.25,6.25,0,0,0,.6-.24l3.24.34a7.42,7.42,0,0,1,1.12-1.44L44.21,9.15c0-.21.07-.42.09-.64l1.92-2.63a7.51,7.51,0,0,1-.69-1.69l-3.21-.56c-.17-.14-.33-.27-.51-.4l-1.32-3A6.93,6.93,0,0,1,38.68,0L36.59,2.5l-.6.25L32.75,2.4a7.14,7.14,0,0,1-1.12,1.44L32.75,6.9c0,.22-.07.42-.09.64l-1.92,2.64a7.32,7.32,0,0,1,.69,1.69l3.21.55a6.4,6.4,0,0,0,.51.4l1.33,3ZM41.15,7A2.88,2.88,0,1,1,37.4,5.36,2.88,2.88,0,0,1,41.15,7ZM20.73,13a5.63,5.63,0,1,1-8-.06,5.63,5.63,0,0,1,8,.06ZM20,4.39a13.43,13.43,0,0,1,3.48,1.47l3.45-2.43,3.45,3.5-2.48,3.42a12.66,12.66,0,0,1,1.41,3.49l4.17.72,0,4.93-4.17.66a12.71,12.71,0,0,1-1.47,3.47l2.43,3.45-3.5,3.46L23.27,28a13,13,0,0,1-3.49,1.42l-.72,4.16-4.93,0-.66-4.17A12.85,12.85,0,0,1,10,27.94L6.55,30.38,3.09,26.87l2.49-3.42A13,13,0,0,1,4.16,20L0,19.24l0-4.92,4.17-.66a12.58,12.58,0,0,1,1.47-3.47L3.24,6.73,6.75,3.28l3.42,2.48a12.66,12.66,0,0,1,3.49-1.41L14.38.18l4.92,0Z"/></g></g></svg>