<svg xmlns="http://www.w3.org/2000/svg" viewBox="0 0 85.68 68.12"><defs><style>.cls-1{fill:#ad1e48;fill-rule:evenodd;}</style></defs><title>road</title><g id="Слой_2" data-name="Слой 2"><g id="Page_1" data-name="Page 1"><path class="cls-1" d="M22.8,3.66c1.95.38,4,.78,5.77,1.3l-1.28.3c-1.67-.5-3.69-.9-5.54-1.27l1.05-.33Zm9.84,5.47,2,0c-.13,1.06-1.25,2.08-3.11,3.09L29.7,11.9c1.72-.9,2.76-1.83,2.94-2.77ZM59.57,59.81A21.89,21.89,0,0,1,46.91,30q-5.13-2.09-9.65-3.89c-9.35-3.68-6.34-5.73-1.09-8.11.46-.21,1-.43,1.47-.64,3.71-1.57,6.53-3.26,7.94-5s1.17-3.56-.52-5.06a18.49,18.49,0,0,0-6.62-3.23,75.06,75.06,0,0,0-8.71-2L17.83,0,5.53,3.7,16.31,6.2c2.28.54,5.33,1.31,5.68,2.35s-2.41,1.89-4.74,2.68a60.55,60.55,0,0,0-6.4,2.57,27.37,27.37,0,0,0-6.71,4.31C1.49,20.59-.31,23.62.05,27.19c.42,4.22,3.78,9.38,12.65,15.65,5,3.54,10.69,7.54,17.08,12.07L48.43,68.12l11.14-8.31ZM15.6,2.24l5,1-1,.32-5-1,1-.31ZM34.31,8l-1.86.08a6.5,6.5,0,0,0-3.22-2.15l1.45-.27A7.54,7.54,0,0,1,34.31,8ZM29,13.45c-2.31,1-4.84,1.85-7,3L20.23,16c2.2-1.17,4.78-2.05,7.11-3l1.62.47Zm-11.3,4.11,1.92.4c-1.82,1.37-3.08,3-3.1,4.75l-2.43.1c.12-2,1.53-3.76,3.61-5.25ZM17.08,25C18.16,27,20.73,29,23.87,30.9L21.78,32c-3.38-2.08-6.1-4.36-7.17-6.66.83-.13,1.65-.26,2.47-.41Zm11.34,8.35c4.38,2.22,9.17,4.68,14.46,7.41l-2,1.65c-5.29-2.84-10.07-5.4-14.43-7.72l1.94-1.34Zm27.69-1a.67.67,0,0,1,.89-.3l7.14,3.54a4.25,4.25,0,0,0-1.62,3.28l-7.14-3.54a.66.66,0,0,1-.3-.89l1-2.09Zm19.57-3.77a.33.33,0,0,0-.47,0l-6.32,6.63a4.25,4.25,0,0,1,1.44,1.42L76.67,30a.33.33,0,0,0,0-.47l-1-.93ZM64.59,36.77a3,3,0,0,0-.9,2.17,3.09,3.09,0,1,0,.9-2.17Zm2.18-16.52A18.92,18.92,0,1,1,47.85,39.17,18.92,18.92,0,0,1,66.77,20.25Zm0,4.08A14.84,14.84,0,1,1,51.93,39.17,14.83,14.83,0,0,1,66.77,24.33Z"/></g></g></svg>