<svg xmlns="http://www.w3.org/2000/svg" viewBox="0 0 56.69 65.71"><defs><style>.cls-1{fill-rule:evenodd;}</style></defs><title>search</title><g id="Слой_2" data-name="Слой 2"><g id="Page_1" data-name="Page 1"><path class="cls-1" d="M32,14.68a58.3,58.3,0,0,0-.4-7.23,56.51,56.51,0,0,0-4,6.07c1.44.44,2.9.83,4.37,1.16ZM26,16.82a49.31,49.31,0,0,0-2.67,6.93L30,25.55a17.41,17.41,0,0,0-3.29,2.92L22.35,27.3a52.12,52.12,0,0,0-1.09,7.35c.6.13,1.21.28,1.81.43a18.3,18.3,0,0,0-.68,3.6l-1.29-.31a61.81,61.81,0,0,0,.35,7.06c.42-.58.84-1.17,1.24-1.77A17.75,17.75,0,0,0,27.94,53a26.77,26.77,0,0,1-8.28-.87A26.51,26.51,0,1,1,53,28.2a17.3,17.3,0,0,0-4.49-3.53,21.67,21.67,0,0,0-.94-4.77c-1.19,0-2.39,0-3.58,0,0,.21,0,.42,0,.63.05.82.06,1.64,0,2.45a18,18,0,0,0-3.66-.47c0-.6,0-1.19,0-1.78,0-.35,0-.7-.07-1-1.61-.14-3.21-.33-4.8-.59-.13,1.38-.3,2.76-.53,4.12a18.08,18.08,0,0,0-3.83,1.65l-.24.15a50.75,50.75,0,0,0,1-6.6c-2-.43-4-.95-5.91-1.57ZM21.52,5a22.07,22.07,0,0,0-6,2.39l-.75.45q1.11.65,2.25,1.23A25.37,25.37,0,0,1,21.52,5ZM10.65,20.37a33.74,33.74,0,0,1,3.72-7.81l.34-.5q-1.58-.86-3.12-1.77a21.94,21.94,0,0,0-5.82,8.77l4.88,1.31ZM9,33.13a32.83,32.83,0,0,1,.68-9.22L4.82,22.6a21.89,21.89,0,0,0,.66,10.51c1.18,0,2.35,0,3.53,0ZM7,36.77c.14.26.28.52.43.77a21.91,21.91,0,0,0,4,5.07,24.79,24.79,0,0,1-1.93-5.79c-.84,0-1.68,0-2.52,0Zm10.78,8.75a62.87,62.87,0,0,1-.33-7.88c-1.37-.23-2.74-.41-4.12-.55a19.42,19.42,0,0,0,4.45,8.43ZM13.23,24.86a28.82,28.82,0,0,0-.53,8.49c1.65.14,3.3.34,4.94.61a54.44,54.44,0,0,1,1.17-7.61l-5.58-1.49ZM18,13.72c-.2.27-.39.56-.58.84a30.07,30.07,0,0,0-3.25,6.76l5.55,1.48a54.23,54.23,0,0,1,2.73-7.19C21,15,19.48,14.4,18,13.72Zm10.37-8a19.3,19.3,0,0,0-8,5.12c1.23.55,2.46,1.06,3.72,1.53a58.53,58.53,0,0,1,4.25-6.65Zm6.93,1.85a59.31,59.31,0,0,1,.36,7.88c1.32.21,2.64.39,4,.52a19.25,19.25,0,0,0-4.33-8.4Zm6.26,2.9a25.83,25.83,0,0,1,1.89,5.77c.85,0,1.7,0,2.55,0-.13-.25-.27-.5-.41-.75a22.23,22.23,0,0,0-4-5.07Zm9.23,40.66,5.59,9.64a2.22,2.22,0,0,1-.81,3l-2.87,1.66a2.22,2.22,0,0,1-3-.8L44.1,55a15.43,15.43,0,1,1,6.71-3.89ZM34.91,31.37A10.09,10.09,0,1,0,48.69,35a10.09,10.09,0,0,0-13.78-3.67ZM37.6,36A4.71,4.71,0,1,0,44,37.74,4.71,4.71,0,0,0,37.6,36Z"/></g></g></svg>