<svg xmlns="http://www.w3.org/2000/svg" viewBox="0 0 356.91 142.4"><defs><style>.cls-1,.cls-2,.cls-3{fill-rule:evenodd;}.cls-2{fill:#fff;}.cls-3{fill:#231f20;}</style></defs><title>sStartSvg3</title><g id="Шар_2" data-name="Шар 2"><g id="Isolation_Mode" data-name="Isolation Mode"><path class="cls-1" d="M309.24,0q10.32,22.52,20.63,45l26.2,17.56-5.13,38.84h6l-2.86,21.66H331.23c-4.14,11.08-15.2,19.3-27.1,19.3s-20.78-8.22-22-19.3H141.83c-4.14,11.08-15.2,19.3-27.09,19.3s-20.78-8.22-22-19.3H46.65q1.43-10.83,2.86-21.66h6.81L69.74,0ZM120,102.63a17.09,17.09,0,0,0-16.44,14.52c-1.06,8,4.58,14.52,12.6,14.52a17.09,17.09,0,0,0,16.44-14.52c1.06-8-4.58-14.52-12.6-14.52Zm173,14.52c-1.06,8,4.58,14.52,12.6,14.52A17.09,17.09,0,0,0,322,117.15c1.06-8-4.58-14.52-12.6-14.52A17.09,17.09,0,0,0,293,117.15Z"/><polygon class="cls-2" points="269.3 10.46 302.53 10.46 321.69 52.26 266.55 52.26 269.3 10.46"/><path class="cls-3" d="M63.52,0,61.66,14,0,8V0ZM59.8,28.11,58.31,39.36,8.88,34.59V28.11ZM55.28,62.25,15.74,58.44V53.26H56.47Z"/><path class="cls-2" d="M234.2,86.47c-13.71,11.38-26.88-20.67-44.61-29.56l-4.18,1.25-4.15-3.44,17-14.13L202.42,44l-1.5,3.48c10.69,14.73,49.23,25.71,35.52,37.09l-2.24,1.87Zm-48.81-38.8L189.78,44,172.89,30l-4.53-7.79c-.83-1.41-6-3.67-7.74-4.71l-7.17,5.95c1.25,1.47,4,5.74,5.67,6.43l9.38,3.77,16.89,14Zm-6,8.6-4,3.3-11.34,1.11-10.35,8.6-2.07,8.9,1.65,1.37,10.23-8.5a1.83,1.83,0,0,1,2.22,0l7.81,6.49a1.15,1.15,0,0,1,0,1.84l-10.23,8.5L165,89.25l10.72-1.72,10.35-8.59,1.21-9.31,7.6-6.3a36,36,0,0,0-5.6-4l-4.55,1.36-5.33-4.44Zm35.32-9.42,11.19-1,10.36-8.6,2.06-8.91L236.67,27l-10.23,8.49a1.82,1.82,0,0,1-2.22,0L216.42,29a1.16,1.16,0,0,1,0-1.85l10.22-8.49L225,17.27,214.27,19l-10.35,8.6L202.59,37l-2.44,2,5.33,4.43-1.63,3.77a33.08,33.08,0,0,0,4.78,4.65Z"/></g></g></svg>