<svg xmlns="http://www.w3.org/2000/svg" viewBox="0 0 76.12 97.52"><title>sStartSvg1</title><g id="Шар_2" data-name="Шар 2"><g id="Isolation_Mode" data-name="Isolation Mode"><path d="M11.36,13.16h46V18.7H11.36V13.16Zm0,12.38h46v5.54H11.36V25.54Zm0,12.37h46v5.54H11.36V37.91ZM68.67,0V75.45l-5.54-7V5.54H5.54v63H18.23V81.25H50.55l4.39,5.54H13.81L0,72.33V0ZM38,50.2l10.18,5.4a16.26,16.26,0,0,0-8.17,6.49L37.1,50.94c-.19-.89.13-1.12.94-.74Zm37.62,40L50,57.82a14.78,14.78,0,0,0-8.17,6.48L67.48,96.68c2.49,3.14,10.67-3.34,8.18-6.48Z"/></g></g></svg>