<svg xmlns="http://www.w3.org/2000/svg" viewBox="0 0 82.68 95.37"><defs><style>.cls-1{fill-rule:evenodd;}</style></defs><title>sStartSvg2</title><g id="Шар_2" data-name="Шар 2"><g id="Isolation_Mode" data-name="Isolation Mode"><path class="cls-1" d="M22.24,58.84H35.33v4.59H22.24V58.84Zm0-11.38H54.77v4.59H22.24V47.46ZM35.33,85.35H4.07A4.09,4.09,0,0,1,0,81.27V10.65A4.08,4.08,0,0,1,4.07,6.58h5l-.81,5.74H5.84a.1.1,0,0,0-.09.1V79.5a.1.1,0,0,0,.09.1H35.33v5.75ZM62,12.42a.1.1,0,0,0-.09-.1H58.81L58,6.58h5.66a4.08,4.08,0,0,1,4.07,4.07V52.32H62V12.42ZM13,56.49h6.93v6.94H13V56.49Zm0-11.37h6.93v6.93H13V45.12Zm0-11.37h6.93v6.93H13V33.75Zm0-11.38h6.93v6.94H13V22.37Zm9.28,13.72H54.77v4.59H22.24V36.09Zm0-11.38H54.77v4.6H22.24v-4.6ZM12.45,4.11H29a4.9,4.9,0,0,1,9.67,0H54.65a1.62,1.62,0,0,1,1.52,1.51l1.26,9a1.45,1.45,0,0,1-1.52,1.52H11.18a1.45,1.45,0,0,1-1.51-1.52l1.26-9a1.62,1.62,0,0,1,1.52-1.51ZM33.87,2.74a2.16,2.16,0,1,1-2.16,2.15,2.15,2.15,0,0,1,2.16-2.15Zm11,58.69V89.36H72.77V77.77l6-5.36V91a4.4,4.4,0,0,1-4.39,4.39H43.22A4.4,4.4,0,0,1,38.83,91V59.81a4.4,4.4,0,0,1,4.39-4.39H74.39a4.34,4.34,0,0,1,1.41.23l-6.48,5.78Zm37.83,3.83L58.54,86.82,47.27,76.76V64.66l11.27,10L82.68,53.17V65.26Z"/></g></g></svg>