<?xml version="1.0" encoding="utf-8"?>
<!-- Generator: Adobe Illustrator 23.0.2, SVG Export Plug-In . SVG Version: 6.00 Build 0)  -->
<svg version="1.1" id="Layer_1" xmlns="http://www.w3.org/2000/svg" xmlns:xlink="http://www.w3.org/1999/xlink" x="0px" y="0px"
	 viewBox="0 0 808 802.9" style="enable-background:new 0 0 808 802.9;" xml:space="preserve">
<style type="text/css">
	.st0{fill:#AD1046;}
</style>
<g>
	<path class="st0" d="M37.5,322.4V50c0-6.9,5.6-12.5,12.5-12.5h432.8c6.9,0,12.5,5.6,12.5,12.5v272.4c0,6.9-5.6,12.5-12.5,12.5H50
		C43.1,334.9,37.5,329.3,37.5,322.4L37.5,322.4z M482.9,372.4c27.6,0,50-22.4,50-50V50c0-27.6-22.4-50-50-50H50C22.4,0,0,22.4,0,50
		v272.4c0,27.6,22.4,50,50,50H482.9L482.9,372.4z"/>
	<path class="st0" d="M447.1,716.6H85.8c-22.2,0-40.2,18-40.2,40.2v6c0,22.2,18,40.2,40.2,40.2h361.3c22.2,0,40.2-18,40.2-40.2v-6
		C487.3,734.6,469.3,716.6,447.1,716.6L447.1,716.6z"/>
	<path class="st0" d="M424.7,677.7v-6c0-22.2-18-40.2-40.2-40.2H148.4c-22.2,0-40.2,18-40.2,40.2v6c0,4,0.6,7.8,1.6,11.4h313.2
		C424.1,685.5,424.7,681.7,424.7,677.7L424.7,677.7z"/>
	<path class="st0" d="M97.6,222.5h337.8c10.4,0,18.8-8.4,18.8-18.8v-98.8c0-10.4-8.4-18.8-18.8-18.8H97.6
		c-10.4,0-18.8,8.4-18.8,18.8v98.8C78.8,214.1,87.2,222.5,97.6,222.5L97.6,222.5z"/>
	<path class="st0" d="M721.6,392.3c-3.7,4.2-10,5-14.6,1.8l-35.1-24.2c-3.5-2.4-5.3-6.5-4.7-10.7l6.2-44.4l72.6,50L721.6,392.3
		L721.6,392.3z M797.2,299.8L672.5,214c-8-5.5-18-5.7-26-1.4l-30.6-42.7c-2.7-3.8-7.1-5.9-11.7-5.7l-50,2
		c-7.6,0.3-13.5,6.7-13.2,14.3c0.3,7.6,6.7,13.5,14.3,13.2l42.6-1.7l30.4,42.3l-8.9,13c-7.8,11.4-5,27,6.4,34.8l22.4,15.4l-8.1,58.1
		c-2,14.6,4.2,28.8,16.4,37.2l35.1,24.2c16.1,11.1,37.9,8.4,50.9-6.3l23.1-26.2l7.4,57.8c1,8,1.2,16.2,0.5,24.2
		c-2.7,30.3-17.1,57.7-40.5,77c-23.4,19.4-53,28.4-83.3,25.3l-249.6-25.3L444.2,400H88.7L152,604h228.9l10.5-33.9L646.6,596
		c4.8,0.5,9.7,0.7,14.5,0.7c32.5,0,63.7-11.2,89.1-32.2c29.2-24.1,47.1-58.1,50.4-95.8c0.9-10,0.7-20.1-0.6-30.1l-10.6-83.4
		l14.2-20.6C811.4,323.2,808.5,307.6,797.2,299.8L797.2,299.8z"/>
</g>
</svg>
